<?xml version="1.0" encoding="UTF-8" standalone="no"?>
<!-- Generator: Adobe Illustrator 14.0.0, SVG Export Plug-In . SVG Version: 6.00 Build 43363)  -->

<svg
   xmlns:dc="http://purl.org/dc/elements/1.1/"
   xmlns:cc="http://creativecommons.org/ns#"
   xmlns:rdf="http://www.w3.org/1999/02/22-rdf-syntax-ns#"
   xmlns:svg="http://www.w3.org/2000/svg"
   xmlns="http://www.w3.org/2000/svg"
   xmlns:sodipodi="http://sodipodi.sourceforge.net/DTD/sodipodi-0.dtd"
   xmlns:inkscape="http://www.inkscape.org/namespaces/inkscape"
   version="1.1"
   x="0px"
   y="0px"
   width="300px"
   height="174.5px"
   viewBox="0 0 300 174.5"
   enable-background="new 0 0 300 174.5"
   xml:space="preserve"
   id="svg4939"
   inkscape:version="0.48.1 "
   sodipodi:docname="controller.svg"
   inkscape:export-filename="C:\Users\Christopher\Projects\NES\nesicide-emulator\resources\controller.png"
   inkscape:export-xdpi="123.74999"
   inkscape:export-ydpi="123.74999"><metadata
   id="metadata5419"><rdf:RDF><cc:Work
       rdf:about=""><dc:format>image/svg+xml</dc:format><dc:type
         rdf:resource="http://purl.org/dc/dcmitype/StillImage" /><dc:title></dc:title></cc:Work></rdf:RDF></metadata><defs
   id="defs5417" /><sodipodi:namedview
   pagecolor="#ffffff"
   bordercolor="#666666"
   borderopacity="1"
   objecttolerance="10"
   gridtolerance="10"
   guidetolerance="10"
   inkscape:pageopacity="0"
   inkscape:pageshadow="2"
   inkscape:window-width="640"
   inkscape:window-height="480"
   id="namedview5415"
   showgrid="false"
   inkscape:zoom="1.6"
   inkscape:cx="150"
   inkscape:cy="87.25"
   inkscape:window-x="0"
   inkscape:window-y="0"
   inkscape:window-maximized="0"
   inkscape:current-layer="svg4939" />
<g
   id="Cord">
	<path
   d="M119.291,15.547c0,0-6.066-0.629-17.458-1.963C90.366,12.241,86.5,18,88.75,28.75s2.75,12,2.625,16.375v5.125H80.5   c0,0,0.25,2.5,0-5.125S79.25,37,78,31S73.427,0.273,104,4.25c7.053,0.917,16.279,2.013,16.279,2.013L119.291,15.547z"
   id="path4942" />
	<g
   id="g4944">
		<path
   fill="none"
   stroke="#333333"
   stroke-width="4"
   d="M86.771,46.875c-0.123-4.299,0.316-5.442-1.187-11.708    C84.554,30.871,83.08,28.13,82.75,22c-0.312-5.812,1.235-9.756,5.25-12.375c2.875-1.875,7.188-2.562,12.375-2.25    c2.873,0.173,16.375,1.812,18.5,2.062"
   id="path4946" />
		<path
   fill="none"
   stroke="#4D4D4D"
   stroke-width="3"
   d="M86.771,46.875c-0.123-4.299,0.316-5.442-1.187-11.708    C84.554,30.871,83.08,28.13,82.75,22c-0.312-5.812,1.235-9.756,5.25-12.375c2.875-1.875,7.188-2.562,12.375-2.25    c2.873,0.173,16.375,1.812,18.5,2.062"
   id="path4948" />
		<path
   fill="none"
   stroke="#808080"
   stroke-width="2"
   d="M86.771,46.875c-0.123-4.299,0.316-5.442-1.187-11.708    C84.554,30.871,83.08,28.13,82.75,22c-0.312-5.812,1.235-9.756,5.25-12.375c2.875-1.875,7.188-2.562,12.375-2.25    c2.873,0.173,16.375,1.812,18.5,2.062"
   id="path4950" />
		<path
   fill="none"
   stroke="#999999"
   d="M86.771,46.875c-0.123-4.299,0.316-5.442-1.187-11.708C84.554,30.871,83.08,28.13,82.75,22    c-0.312-5.812,1.235-9.756,5.25-12.375c2.875-1.875,7.188-2.562,12.375-2.25c2.873,0.173,16.375,1.812,18.5,2.062"
   id="path4952" />
	</g>
</g>
<g
   id="Top_Part">
	<g
   id="Front_Plate">
		<g
   id="g4956">
			<g
   id="g4958">
				<path
   fill="#FFECDE"
   d="M297.25,166.125c0,2.762-2.238,5-5,5H7.875c-2.761,0-5-2.238-5-5v-116c0-2.761,2.239-5,5-5H292.25      c2.762,0,5,2.239,5,5V166.125z"
   id="path4960" />
			</g>
			<g
   id="g4962">
				<g
   id="g4964">
					<path
   fill="#262322"
   d="M286.5,66h-273c-1.104,0-2,0.896-2,2v93.375c0,1.104,0.896,2,2,2h273c1.104,0,2-0.896,2-2V68       C288.5,66.896,287.604,66,286.5,66z M84.125,130c0,1.657-1.343,3-3,3H67.25v13.875c0,1.657-1.343,3-3,3H45.375       c-1.657,0-3-1.343-3-3V133h-13.75c-1.657,0-3-1.343-3-3v-18.625c0-1.657,1.343-3,3-3h13.75v-13.75c0-1.657,1.343-3,3-3H64.25       c1.657,0,3,1.343,3,3v13.75h13.875c1.657,0,3,1.343,3,3V130z M180.375,144.125c0,2.762-2.238,5-5,5H103c-2.761,0-5-2.238-5-5       V125.75c0-2.762,2.239-5,5-5h72.375c2.762,0,5,2.238,5,5V144.125z M225.5,148.375c0,1.104-0.896,2-2,2h-27.375       c-1.104,0-2-0.896-2-2v-27.25c0-1.104,0.896-2,2-2H223.5c1.104,0,2,0.896,2,2V148.375z M263.625,148.375c0,1.104-0.896,2-2,2       H234c-1.104,0-2-0.896-2-2v-27.25c0-1.104,0.896-2,2-2h27.625c1.104,0,2,0.896,2,2V148.375z"
   id="path4966" />
				</g>
			</g>
			<g
   id="g4968">
				<g
   id="g4970">
					<path
   fill="#B7ACAB"
   d="M98,163.375c0.984,0,81.172,0,82.375,0c0-0.641,0-5.625,0-5.625c0-2.209-1.791-4-4-4H102       c-2.209,0-4,1.791-4,4C98,157.75,98,162.656,98,163.375z"
   id="path4972" />
					<path
   fill="#B7ACAB"
   d="M98,104.875c0-2.209,1.791-4,4-4h74.375c2.209,0,4,1.791,4,4v5.75c0,2.209-1.791,4-4,4H102       c-2.209,0-4-1.791-4-4V104.875z"
   id="path4974" />
					<path
   fill="#B7ACAB"
   d="M98,86.875c0-2.209,1.791-4,4-4h74.375c2.209,0,4,1.791,4,4v5.5c0,2.209-1.791,4-4,4H102       c-2.209,0-4-1.791-4-4V86.875z"
   id="path4976" />
					<path
   fill="#B7ACAB"
   d="M98,66v8.375c0,2.209,1.791,4,4,4h74.375c2.209,0,4-1.791,4-4V66H98z"
   id="path4978" />
				</g>
			</g>
			<g
   id="g4980">
				<g
   id="g4982">
					<g
   id="g4984">
						<path
   fill="#231F20"
   d="M132.25,134.5c0-2.209-1.791-4-4-4h-16.125c-2.209,0-4,1.791-4,4v1c0,2.209,1.791,4,4,4h16.125        c2.209,0,4-1.791,4-4V134.5z"
   id="path4986" />
					</g>
					<g
   id="g4988">
						<path
   fill="#231F20"
   d="M170.75,134.5c0-2.209-1.791-4-4-4h-16.125c-2.209,0-4,1.791-4,4v1c0,2.209,1.791,4,4,4h16.125        c2.209,0,4-1.791,4-4V134.5z"
   id="path4990" />
					</g>
				</g>
			</g>
		</g>
		<g
   id="g4992">
			<g
   id="g4994">
				<path
   fill="none"
   stroke="#000000"
   d="M297.25,166.125c0,2.762-2.238,5-5,5H7.875c-2.761,0-5-2.238-5-5v-116      c0-2.761,2.239-5,5-5H292.25c2.762,0,5,2.239,5,5V166.125z"
   id="path4996" />
				<polyline
   fill="none"
   stroke="#000000"
   points="80.5,45.125 80.5,50.25 91.375,50.25 91.375,45.125     "
   id="polyline4998" />
			</g>
			<g
   id="g5000">
				<g
   id="g5002">
					<path
   fill="none"
   stroke="#000000"
   d="M286.5,66h-273c-1.104,0-2,0.896-2,2v93.375c0,1.104,0.896,2,2,2h273       c1.104,0,2-0.896,2-2V68C288.5,66.896,287.604,66,286.5,66z M84.125,130c0,1.657-1.343,3-3,3H67.25v13.875c0,1.657-1.343,3-3,3       H45.375c-1.657,0-3-1.343-3-3V133h-13.75c-1.657,0-3-1.343-3-3v-18.625c0-1.657,1.343-3,3-3h13.75v-13.75c0-1.657,1.343-3,3-3       H64.25c1.657,0,3,1.343,3,3v13.75h13.875c1.657,0,3,1.343,3,3V130z M180.375,144.125c0,2.762-2.238,5-5,5H103       c-2.761,0-5-2.238-5-5V125.75c0-2.762,2.239-5,5-5h72.375c2.762,0,5,2.238,5,5V144.125z M225.5,148.375c0,1.104-0.896,2-2,2       h-27.375c-1.104,0-2-0.896-2-2v-27.25c0-1.104,0.896-2,2-2H223.5c1.104,0,2,0.896,2,2V148.375z M263.625,148.375       c0,1.104-0.896,2-2,2H234c-1.104,0-2-0.896-2-2v-27.25c0-1.104,0.896-2,2-2h27.625c1.104,0,2,0.896,2,2V148.375z"
   id="path5004" />
				</g>
				<g
   id="g5006">
					<path
   fill="none"
   stroke="#000000"
   d="M286.5,66h-273c-1.104,0-2,0.896-2,2v93.375c0,1.104,0.896,2,2,2h273       c1.104,0,2-0.896,2-2V68C288.5,66.896,287.604,66,286.5,66z M84.125,130c0,1.657-1.343,3-3,3H67.25v13.875c0,1.657-1.343,3-3,3       H45.375c-1.657,0-3-1.343-3-3V133h-13.75c-1.657,0-3-1.343-3-3v-18.625c0-1.657,1.343-3,3-3h13.75v-13.75c0-1.657,1.343-3,3-3       H64.25c1.657,0,3,1.343,3,3v13.75h13.875c1.657,0,3,1.343,3,3V130z M180.375,144.125c0,2.762-2.238,5-5,5H103       c-2.761,0-5-2.238-5-5V125.75c0-2.762,2.239-5,5-5h72.375c2.762,0,5,2.238,5,5V144.125z M225.5,148.375c0,1.104-0.896,2-2,2       h-27.375c-1.104,0-2-0.896-2-2v-27.25c0-1.104,0.896-2,2-2H223.5c1.104,0,2,0.896,2,2V148.375z M263.625,148.375       c0,1.104-0.896,2-2,2H234c-1.104,0-2-0.896-2-2v-27.25c0-1.104,0.896-2,2-2h27.625c1.104,0,2,0.896,2,2V148.375z"
   id="path5008" />
				</g>
				<g
   id="g5010">
					<path
   fill="none"
   stroke="#000000"
   d="M286.5,66h-273c-1.104,0-2,0.896-2,2v93.375c0,1.104,0.896,2,2,2h273       c1.104,0,2-0.896,2-2V68C288.5,66.896,287.604,66,286.5,66z M84.125,130c0,1.657-1.343,3-3,3H67.25v13.875c0,1.657-1.343,3-3,3       H45.375c-1.657,0-3-1.343-3-3V133h-13.75c-1.657,0-3-1.343-3-3v-18.625c0-1.657,1.343-3,3-3h13.75v-13.75c0-1.657,1.343-3,3-3       H64.25c1.657,0,3,1.343,3,3v13.75h13.875c1.657,0,3,1.343,3,3V130z M180.375,144.125c0,2.762-2.238,5-5,5H103       c-2.761,0-5-2.238-5-5V125.75c0-2.762,2.239-5,5-5h72.375c2.762,0,5,2.238,5,5V144.125z M225.5,148.375c0,1.104-0.896,2-2,2       h-27.375c-1.104,0-2-0.896-2-2v-27.25c0-1.104,0.896-2,2-2H223.5c1.104,0,2,0.896,2,2V148.375z M263.625,148.375       c0,1.104-0.896,2-2,2H234c-1.104,0-2-0.896-2-2v-27.25c0-1.104,0.896-2,2-2h27.625c1.104,0,2,0.896,2,2V148.375z"
   id="path5012" />
				</g>
			</g>
			<g
   id="g5014">
				<g
   id="g5016">
					<path
   fill="none"
   stroke="#000000"
   d="M98,163.375c0.984,0,81.172,0,82.375,0c0-0.641,0-5.625,0-5.625c0-2.209-1.791-4-4-4H102       c-2.209,0-4,1.791-4,4C98,157.75,98,162.656,98,163.375z"
   id="path5018" />
					<path
   fill="none"
   stroke="#000000"
   d="M98,104.875c0-2.209,1.791-4,4-4h74.375c2.209,0,4,1.791,4,4v5.75c0,2.209-1.791,4-4,4       H102c-2.209,0-4-1.791-4-4V104.875z"
   id="path5020" />
					<path
   fill="none"
   stroke="#000000"
   d="M98,86.875c0-2.209,1.791-4,4-4h74.375c2.209,0,4,1.791,4,4v5.5c0,2.209-1.791,4-4,4H102       c-2.209,0-4-1.791-4-4V86.875z"
   id="path5022" />
					<path
   fill="none"
   stroke="#000000"
   d="M98,66v8.375c0,2.209,1.791,4,4,4h74.375c2.209,0,4-1.791,4-4V66H98z"
   id="path5024" />
				</g>
			</g>
			<g
   id="g5026">
				<g
   id="g5028">
					<g
   id="g5030">
						<path
   fill="none"
   stroke="#000000"
   d="M132.25,134.5c0-2.209-1.791-4-4-4h-16.125c-2.209,0-4,1.791-4,4v1c0,2.209,1.791,4,4,4        h16.125c2.209,0,4-1.791,4-4V134.5z"
   id="path5032" />
					</g>
					<g
   id="g5034">
						<path
   fill="none"
   stroke="#000000"
   d="M170.75,134.5c0-2.209-1.791-4-4-4h-16.125c-2.209,0-4,1.791-4,4v1c0,2.209,1.791,4,4,4        h16.125c2.209,0,4-1.791,4-4V134.5z"
   id="path5036" />
					</g>
				</g>
				<g
   id="g5038">
					<g
   id="g5040">
						<path
   fill="none"
   stroke="#000000"
   d="M132.25,134.5c0-2.209-1.791-4-4-4h-16.125c-2.209,0-4,1.791-4,4v1c0,2.209,1.791,4,4,4        h16.125c2.209,0,4-1.791,4-4V134.5z"
   id="path5042" />
					</g>
					<g
   id="g5044">
						<path
   fill="none"
   stroke="#000000"
   d="M170.75,134.5c0-2.209-1.791-4-4-4h-16.125c-2.209,0-4,1.791-4,4v1c0,2.209,1.791,4,4,4        h16.125c2.209,0,4-1.791,4-4V134.5z"
   id="path5046" />
					</g>
				</g>
				<g
   id="g5048">
					<g
   id="g5050">
						<path
   fill="none"
   stroke="#000000"
   d="M132.25,134.5c0-2.209-1.791-4-4-4h-16.125c-2.209,0-4,1.791-4,4v1c0,2.209,1.791,4,4,4        h16.125c2.209,0,4-1.791,4-4V134.5z"
   id="path5052" />
					</g>
					<g
   id="g5054">
						<path
   fill="none"
   stroke="#000000"
   d="M170.75,134.5c0-2.209-1.791-4-4-4h-16.125c-2.209,0-4,1.791-4,4v1c0,2.209,1.791,4,4,4        h16.125c2.209,0,4-1.791,4-4V134.5z"
   id="path5056" />
					</g>
				</g>
			</g>
		</g>
	</g>
	<g
   id="Start-Select-Bevel_1_">
		<linearGradient
   id="SVGID_1_"
   gradientUnits="userSpaceOnUse"
   x1="147.8813"
   y1="115.1797"
   x2="129.6939"
   y2="156.2581">
			<stop
   offset="0.0675"
   style="stop-color:#8A7F7D"
   id="stop5060" />
			<stop
   offset="1"
   style="stop-color:#DDCCC9"
   id="stop5062" />
		</linearGradient>
		<path
   fill="url(#SVGID_1_)"
   d="M175.338,145.586h-72.374c-0.827,0-1.5-0.673-1.5-1.5V125.71c0-0.827,0.673-1.5,1.5-1.5h72.374    c0.827,0,1.5,0.673,1.5,1.5v18.376C176.838,144.913,176.165,145.586,175.338,145.586L175.338,145.586z M102.964,125.21    c-0.276,0-0.5,0.225-0.5,0.5v18.376c0,0.275,0.224,0.5,0.5,0.5h72.374c0.275,0,0.5-0.225,0.5-0.5V125.71    c0-0.275-0.225-0.5-0.5-0.5H102.964L102.964,125.21z"
   id="path5064" />
	</g>
	<g
   id="DPad">
		<path
   fill="#262322"
   d="M66.125,110.75c-0.552,0-1-0.447-1-1V94.125h-20.25v15.625c0,0.553-0.448,1-1,1H28.25v20.125h15.625    c0.552,0,1,0.447,1,1v15.75h20.25v-15.75c0-0.553,0.448-1,1-1h15.75V110.75H66.125z"
   id="path5067" />
		<path
   fill="#262322"
   stroke="#000000"
   d="M32.083,129.072c-1.104,0-2-0.896-2-2v-12.497c0-1.104,0.896-2,2-2h13.808    c0.453,0,0.82-0.366,0.82-0.819V97.947c0-1.104,0.896-2,2-2h12.6c1.104,0,2,0.896,2,2v13.809c0,0.453,0.367,0.819,0.82,0.819    h13.911c1.104,0,2,0.896,2,2v12.497c0,1.104-0.896,2-2,2H64.131c-0.453,0-0.82,0.366-0.82,0.819v13.911c0,1.104-0.896,2-2,2h-12.6    c-1.104,0-2-0.896-2-2v-13.911c0-0.453-0.367-0.819-0.82-0.819H32.083z"
   id="path5069" />
		<g
   id="Pit">
			<linearGradient
   id="SVGID_2_"
   gradientUnits="userSpaceOnUse"
   x1="49.9697"
   y1="127.373"
   x2="60.157"
   y2="114.3733">
				<stop
   offset="0.0798"
   style="stop-color:#6D6867"
   id="stop5073" />
				<stop
   offset="0.546"
   style="stop-color:#000000"
   id="stop5075" />
			</linearGradient>
			<path
   fill="url(#SVGID_2_)"
   d="M55.062,129.312c-4.652,0-8.438-3.785-8.438-8.438s3.785-8.438,8.438-8.438     s8.438,3.785,8.438,8.438S59.715,129.312,55.062,129.312L55.062,129.312z"
   id="path5077" />
			<radialGradient
   id="SVGID_3_"
   cx="55.0625"
   cy="120.875"
   r="7.4375"
   fx="52.8423"
   fy="124.6164"
   gradientUnits="userSpaceOnUse">
				<stop
   offset="0"
   style="stop-color:#6D6867"
   id="stop5080" />
				<stop
   offset="0.8896"
   style="stop-color:#262322"
   id="stop5082" />
			</radialGradient>
			<circle
   fill="url(#SVGID_3_)"
   cx="55.062"
   cy="120.875"
   r="7.438"
   id="circle5084" />
		</g>
		<g
   id="Arrows">
			<g
   id="Left">
				<line
   fill="none"
   stroke="#000000"
   stroke-linecap="round"
   x1="37.642"
   y1="126.792"
   x2="37.642"
   y2="124.792"
   id="line5088" />
				<line
   fill="none"
   stroke="#000000"
   stroke-linecap="round"
   x1="32.142"
   y1="120.875"
   x2="37.642"
   y2="114.958"
   id="line5090" />
				<line
   fill="none"
   stroke="#000000"
   stroke-linecap="round"
   x1="37.642"
   y1="116.958"
   x2="43.058"
   y2="116.958"
   id="line5092" />
				<line
   fill="none"
   stroke="#000000"
   stroke-linecap="round"
   x1="43.058"
   y1="116.958"
   x2="43.058"
   y2="124.792"
   id="line5094" />
				<line
   fill="none"
   stroke="#000000"
   stroke-linecap="round"
   x1="37.642"
   y1="114.958"
   x2="37.642"
   y2="116.958"
   id="line5096" />
				<line
   fill="none"
   stroke="#6D6867"
   stroke-linecap="round"
   x1="32.142"
   y1="120.875"
   x2="37.642"
   y2="126.792"
   id="line5098" />
				<line
   fill="none"
   stroke="#6D6867"
   stroke-linecap="round"
   x1="37.642"
   y1="124.792"
   x2="43.058"
   y2="124.792"
   id="line5100" />
			</g>
			<g
   id="Down">
				<line
   fill="none"
   stroke="#6D6867"
   stroke-linecap="round"
   x1="55.062"
   y1="143.796"
   x2="60.979"
   y2="138.296"
   id="line5103" />
				<line
   fill="none"
   stroke="#6D6867"
   stroke-linecap="round"
   x1="55.062"
   y1="143.796"
   x2="49.146"
   y2="138.296"
   id="line5105" />
				<line
   fill="none"
   stroke="#000000"
   stroke-linecap="round"
   x1="60.979"
   y1="138.296"
   x2="58.979"
   y2="138.296"
   id="line5107" />
				<line
   fill="none"
   stroke="#000000"
   stroke-linecap="round"
   x1="58.979"
   y1="138.296"
   x2="58.979"
   y2="132.879"
   id="line5109" />
				<line
   fill="none"
   stroke="#000000"
   stroke-linecap="round"
   x1="51.146"
   y1="138.296"
   x2="51.146"
   y2="132.879"
   id="line5111" />
				<line
   fill="none"
   stroke="#000000"
   stroke-linecap="round"
   x1="51.146"
   y1="132.879"
   x2="58.979"
   y2="132.879"
   id="line5113" />
				<line
   fill="none"
   stroke="#000000"
   stroke-linecap="round"
   x1="49.146"
   y1="138.296"
   x2="51.146"
   y2="138.296"
   id="line5115" />
			</g>
			<g
   id="Right">
				<line
   fill="none"
   stroke="#000000"
   stroke-linecap="round"
   x1="77.983"
   y1="120.875"
   x2="72.483"
   y2="114.958"
   id="line5118" />
				<line
   fill="none"
   stroke="#000000"
   stroke-linecap="round"
   x1="72.483"
   y1="114.958"
   x2="72.483"
   y2="116.958"
   id="line5120" />
				<line
   fill="none"
   stroke="#000000"
   stroke-linecap="round"
   x1="72.483"
   y1="116.958"
   x2="67.066"
   y2="116.958"
   id="line5122" />
				<line
   fill="none"
   stroke="#000000"
   stroke-linecap="round"
   x1="67.066"
   y1="124.792"
   x2="67.066"
   y2="116.958"
   id="line5124" />
				<line
   fill="none"
   stroke="#000000"
   stroke-linecap="round"
   x1="72.483"
   y1="126.792"
   x2="72.483"
   y2="124.792"
   id="line5126" />
				<line
   fill="none"
   stroke="#6D6867"
   stroke-linecap="round"
   x1="77.983"
   y1="120.875"
   x2="72.483"
   y2="126.792"
   id="line5128" />
				<line
   fill="none"
   stroke="#6D6867"
   stroke-linecap="round"
   x1="72.483"
   y1="124.792"
   x2="67.066"
   y2="124.792"
   id="line5130" />
			</g>
			<g
   id="Up">
				<line
   fill="none"
   stroke="#6D6867"
   stroke-linecap="round"
   x1="49.146"
   y1="103.454"
   x2="51.146"
   y2="103.454"
   id="line5133" />
				<line
   fill="none"
   stroke="#6D6867"
   stroke-linecap="round"
   x1="58.979"
   y1="108.871"
   x2="51.146"
   y2="108.871"
   id="line5135" />
				<line
   fill="none"
   stroke="#6D6867"
   stroke-linecap="round"
   x1="60.979"
   y1="103.454"
   x2="58.979"
   y2="103.454"
   id="line5137" />
				<line
   fill="none"
   stroke="#000000"
   stroke-linecap="round"
   x1="55.062"
   y1="97.954"
   x2="49.146"
   y2="103.454"
   id="line5139" />
				<line
   fill="none"
   stroke="#000000"
   stroke-linecap="round"
   x1="58.979"
   y1="103.454"
   x2="58.979"
   y2="108.871"
   id="line5141" />
				<line
   fill="none"
   stroke="#000000"
   stroke-linecap="round"
   x1="51.146"
   y1="103.454"
   x2="51.146"
   y2="108.871"
   id="line5143" />
				<line
   fill="none"
   stroke="#000000"
   stroke-linecap="round"
   x1="55.062"
   y1="97.954"
   x2="60.979"
   y2="103.454"
   id="line5145" />
			</g>
		</g>
	</g>
	<g
   id="Buttons">
		<g
   id="Layer_18"
   display="none">
		</g>
		<g
   id="B_1_">
			<circle
   fill="#FF0000"
   stroke="#000000"
   cx="209.663"
   cy="134.502"
   r="12.583"
   id="circle5150" />
			<linearGradient
   id="SVGID_4_"
   gradientUnits="userSpaceOnUse"
   x1="209.5"
   y1="123.5"
   x2="209.5"
   y2="145.4407">
				<stop
   offset="0"
   style="stop-color:#FF8585"
   id="stop5153" />
				<stop
   offset="1"
   style="stop-color:#FF1C1C"
   id="stop5155" />
			</linearGradient>
			<path
   fill="url(#SVGID_4_)"
   d="M209.5,145.438c-6.065,0-11-4.935-11-11s4.935-11,11-11s11,4.935,11,11     S215.565,145.438,209.5,145.438L209.5,145.438z"
   id="path5157" />
			<radialGradient
   id="SVGID_5_"
   cx="209.5576"
   cy="143.6328"
   r="19.1377"
   gradientUnits="userSpaceOnUse">
				<stop
   offset="0"
   style="stop-color:#FFB8B8"
   id="stop5160" />
				<stop
   offset="0.6156"
   style="stop-color:#FF0000"
   id="stop5162" />
			</radialGradient>
			<circle
   fill="url(#SVGID_5_)"
   cx="209.5"
   cy="134.438"
   r="10"
   id="circle5164" />
		</g>
		<g
   id="A_1_">
			<circle
   fill="#FF0000"
   stroke="#000000"
   cx="247.663"
   cy="134.502"
   r="12.583"
   id="circle5167" />
			<linearGradient
   id="SVGID_6_"
   gradientUnits="userSpaceOnUse"
   x1="247.5"
   y1="123.5"
   x2="247.5"
   y2="145.4407">
				<stop
   offset="0"
   style="stop-color:#FF8585"
   id="stop5170" />
				<stop
   offset="1"
   style="stop-color:#FF1C1C"
   id="stop5172" />
			</linearGradient>
			<path
   fill="url(#SVGID_6_)"
   d="M247.5,145.438c-6.065,0-11-4.935-11-11s4.935-11,11-11s11,4.935,11,11     S253.565,145.438,247.5,145.438L247.5,145.438z"
   id="path5174" />
			<radialGradient
   id="SVGID_7_"
   cx="247.5576"
   cy="143.6328"
   r="19.1377"
   gradientUnits="userSpaceOnUse">
				<stop
   offset="0"
   style="stop-color:#FFB8B8"
   id="stop5177" />
				<stop
   offset="0.6156"
   style="stop-color:#FF0000"
   id="stop5179" />
			</radialGradient>
			<circle
   fill="url(#SVGID_7_)"
   cx="247.5"
   cy="134.438"
   r="10"
   id="circle5181" />
		</g>
	</g>
	<g
   id="Text">
		<g
   id="Layer_13">
			<g
   id="g5185">
				<path
   fill="#FF0000"
   d="M106.129,107.931c0.439,0,0.803,0.119,1.091,0.355c0.288,0.237,0.432,0.573,0.432,1.007      c0,0.366-0.135,0.671-0.407,0.916c-0.271,0.244-0.592,0.366-0.963,0.366h-3.992v-1.121h3.618c0.093,0,0.178-0.039,0.256-0.117      s0.117-0.164,0.117-0.256c0-0.107-0.042-0.19-0.125-0.249s-0.188-0.088-0.315-0.088h-2.021c-0.454,0-0.823-0.111-1.106-0.333      s-0.425-0.563-0.425-1.022c0-0.347,0.137-0.646,0.41-0.897s0.605-0.377,0.996-0.377h3.955v1.121h-3.611      c-0.098,0-0.186,0.039-0.264,0.117s-0.117,0.164-0.117,0.256c0,0.107,0.04,0.188,0.121,0.242      c0.08,0.054,0.187,0.081,0.318,0.081H106.129z"
   id="path5187" />
				<path
   fill="#FF0000"
   d="M108.445,109.081v-2.966h4.929v1.128h-3.311c-0.088,0-0.161,0.038-0.22,0.114s-0.088,0.162-0.088,0.26      c0,0.093,0.029,0.172,0.088,0.238c0.059,0.065,0.132,0.099,0.22,0.099h3.054v0.85h-3.054c-0.205,0-0.308,0.093-0.308,0.278      c0,0.093,0.029,0.173,0.088,0.242s0.132,0.103,0.22,0.103h3.311v1.15h-3.494c-0.273,0-0.507-0.041-0.699-0.125      c-0.193-0.082-0.336-0.176-0.429-0.277c-0.093-0.104-0.164-0.236-0.212-0.399c-0.049-0.164-0.077-0.288-0.084-0.374      C108.449,109.314,108.445,109.208,108.445,109.081z"
   id="path5189" />
				<path
   fill="#FF0000"
   d="M114.189,106.115h1.311v2.966c0,0.093,0.029,0.173,0.088,0.242s0.132,0.103,0.22,0.103h3.311v1.15      h-3.494c-0.273,0-0.507-0.041-0.699-0.125c-0.193-0.082-0.336-0.176-0.429-0.277c-0.093-0.104-0.164-0.236-0.212-0.399      c-0.049-0.164-0.077-0.288-0.084-0.374c-0.007-0.085-0.011-0.191-0.011-0.318V106.115z"
   id="path5191" />
				<path
   fill="#FF0000"
   d="M119.698,109.081v-2.966h4.929v1.128h-3.311c-0.088,0-0.161,0.038-0.22,0.114s-0.088,0.162-0.088,0.26      c0,0.093,0.029,0.172,0.088,0.238c0.059,0.065,0.132,0.099,0.22,0.099h3.054v0.85h-3.054c-0.205,0-0.308,0.093-0.308,0.278      c0,0.093,0.029,0.173,0.088,0.242s0.132,0.103,0.22,0.103h3.311v1.15h-3.494c-0.273,0-0.507-0.041-0.699-0.125      c-0.193-0.082-0.336-0.176-0.429-0.277c-0.093-0.104-0.164-0.236-0.212-0.399c-0.049-0.164-0.077-0.288-0.084-0.374      C119.702,109.314,119.698,109.208,119.698,109.081z"
   id="path5193" />
				<path
   fill="#FF0000"
   d="M130.525,110.575h-3.706c-0.264,0-0.491-0.038-0.681-0.113c-0.19-0.076-0.33-0.161-0.417-0.257      c-0.088-0.095-0.157-0.221-0.209-0.377c-0.051-0.156-0.079-0.277-0.084-0.362c-0.005-0.085-0.007-0.194-0.007-0.326v-1.553      c0-0.137,0.002-0.248,0.007-0.333s0.033-0.209,0.084-0.37c0.052-0.161,0.121-0.291,0.209-0.388s0.227-0.186,0.417-0.264      s0.417-0.117,0.681-0.117h3.706v1.157h-3.391c-0.083,0-0.156,0.033-0.22,0.099c-0.063,0.065-0.095,0.138-0.095,0.216v1.553      c0,0.088,0.03,0.157,0.092,0.209c0.061,0.051,0.135,0.077,0.223,0.077h3.391V110.575z"
   id="path5195" />
				<path
   fill="#FF0000"
   d="M131.229,107.235v-1.121h5.361v1.121h-1.56c-0.088,0-0.167,0.039-0.238,0.117s-0.106,0.166-0.106,0.264      v2.959h-1.553v-2.959c0-0.093-0.032-0.18-0.095-0.26c-0.063-0.081-0.127-0.121-0.19-0.121H131.229z"
   id="path5197" />
			</g>
			<g
   id="g5199">
				<path
   fill="#FF0000"
   d="M148.879,107.931c0.439,0,0.803,0.119,1.091,0.355c0.288,0.237,0.432,0.573,0.432,1.007      c0,0.366-0.135,0.671-0.407,0.916c-0.271,0.244-0.592,0.366-0.963,0.366h-3.992v-1.121h3.618c0.093,0,0.178-0.039,0.256-0.117      s0.117-0.164,0.117-0.256c0-0.107-0.042-0.19-0.125-0.249s-0.188-0.088-0.315-0.088h-2.021c-0.454,0-0.823-0.111-1.106-0.333      s-0.425-0.563-0.425-1.022c0-0.347,0.137-0.646,0.41-0.897s0.605-0.377,0.996-0.377h3.955v1.121h-3.611      c-0.098,0-0.186,0.039-0.264,0.117s-0.117,0.164-0.117,0.256c0,0.107,0.04,0.188,0.121,0.242      c0.08,0.054,0.187,0.081,0.318,0.081H148.879z"
   id="path5201" />
				<path
   fill="#FF0000"
   d="M151.326,107.235v-1.121h5.361v1.121h-1.561c-0.088,0-0.168,0.039-0.238,0.117s-0.105,0.166-0.105,0.264      v2.959h-1.553v-2.959c0-0.093-0.032-0.18-0.096-0.26c-0.063-0.081-0.127-0.121-0.19-0.121H151.326z"
   id="path5203" />
				<path
   fill="#FF0000"
   d="M161.625,106.115c0.977,0,1.465,0.5,1.465,1.501v2.959h-1.428v-1.121h-2.527v1.121h-1.436v-2.959      c0-0.088,0.002-0.172,0.008-0.253c0.004-0.08,0.033-0.204,0.088-0.37c0.053-0.166,0.127-0.308,0.219-0.425      c0.094-0.117,0.24-0.222,0.439-0.315c0.201-0.093,0.438-0.139,0.711-0.139H161.625z M159.135,108.334h2.527v-0.784      c0-0.068-0.033-0.137-0.1-0.205s-0.147-0.103-0.245-0.103h-1.904c-0.059,0-0.12,0.036-0.183,0.106      c-0.064,0.071-0.096,0.138-0.096,0.202V108.334z"
   id="path5205" />
				<path
   fill="#FF0000"
   d="M169.15,108.825c0.355,0.21,0.534,0.564,0.534,1.062v0.688h-1.406v-0.842      c0-0.059-0.034-0.12-0.103-0.184s-0.127-0.095-0.176-0.095h-1.963c-0.21,0-0.314,0.092-0.314,0.279v0.842h-1.465v-4.46h3.991      c0.21,0,0.401,0.027,0.575,0.081c0.173,0.054,0.312,0.122,0.418,0.205c0.104,0.083,0.195,0.176,0.273,0.278      s0.137,0.205,0.172,0.308c0.037,0.103,0.065,0.195,0.085,0.278s0.032,0.151,0.036,0.205v0.081c0,0.088-0.01,0.189-0.033,0.304      c-0.021,0.115-0.086,0.272-0.193,0.472S169.33,108.693,169.15,108.825z M168.278,108.019v-0.439      c0-0.229-0.093-0.344-0.278-0.344h-1.963c-0.093,0-0.168,0.033-0.227,0.099c-0.059,0.066-0.088,0.148-0.088,0.246v0.439      c0,0.098,0.022,0.179,0.068,0.246c0.047,0.065,0.098,0.099,0.15,0.099H168C168.186,108.363,168.278,108.249,168.278,108.019z"
   id="path5207" />
				<path
   fill="#FF0000"
   d="M170.852,107.235v-1.121h5.361v1.121h-1.56c-0.088,0-0.167,0.039-0.238,0.117s-0.106,0.166-0.106,0.264      v2.959h-1.553v-2.959c0-0.093-0.031-0.18-0.095-0.26c-0.063-0.081-0.127-0.121-0.19-0.121H170.852z"
   id="path5209" />
			</g>
			<g
   id="g5211">
				<path
   fill="#FF0000"
   d="M219.895,153.139h4.914c0.412,0,0.766,0.16,1.062,0.481c0.295,0.32,0.442,0.693,0.442,1.118      c0,0.337-0.084,0.647-0.252,0.934c-0.169,0.285-0.396,0.428-0.682,0.428c0.279,0,0.505,0.128,0.677,0.381      c0.171,0.255,0.257,0.515,0.257,0.781c0,0.495-0.133,0.898-0.4,1.209c-0.266,0.312-0.635,0.467-1.104,0.467h-4.914V153.139z       M224.561,154.605h-2.562c-0.114,0-0.209,0.049-0.285,0.147s-0.114,0.211-0.114,0.338c0,0.121,0.038,0.224,0.114,0.31      s0.171,0.129,0.285,0.129h2.562c0.114,0,0.209-0.043,0.285-0.129s0.115-0.188,0.115-0.31c0-0.127-0.039-0.239-0.115-0.338      S224.675,154.605,224.561,154.605z M224.561,156.633h-2.562c-0.267,0-0.399,0.121-0.399,0.362c0,0.121,0.038,0.226,0.114,0.314      s0.171,0.133,0.285,0.133h2.562c0.114,0,0.209-0.044,0.285-0.133s0.115-0.193,0.115-0.314      C224.961,156.754,224.827,156.633,224.561,156.633z"
   id="path5213" />
			</g>
			<g
   id="g5215">
				<path
   fill="#FF0000"
   d="M262.47,153.139c1.27,0,1.904,0.651,1.904,1.952v3.847h-1.856v-1.457h-3.285v1.457h-1.866v-3.847      c0-0.114,0.003-0.224,0.01-0.328c0.006-0.105,0.044-0.266,0.114-0.481c0.069-0.216,0.165-0.399,0.285-0.552      c0.121-0.152,0.312-0.289,0.572-0.409c0.26-0.121,0.567-0.182,0.923-0.182H262.47z M259.232,156.023h3.285v-1.019      c0-0.089-0.043-0.178-0.129-0.267c-0.085-0.089-0.191-0.133-0.318-0.133h-2.476c-0.076,0-0.156,0.046-0.238,0.138      c-0.083,0.092-0.124,0.18-0.124,0.262V156.023z"
   id="path5217" />
			</g>
		</g>
		<g
   id="Layer_15">
			<g
   id="g5220">
				<g
   id="g5222">
					<linearGradient
   id="SVGID_8_"
   gradientUnits="userSpaceOnUse"
   x1="228.9531"
   y1="87.9331"
   x2="228.9531"
   y2="85.0166">
						<stop
   offset="0"
   style="stop-color:#0826FF"
   id="stop5225" />
						<stop
   offset="0.0955"
   style="stop-color:#5E72FF"
   id="stop5227" />
						<stop
   offset="1"
   style="stop-color:#DBE0FF"
   id="stop5229" />
					</linearGradient>
					<path
   fill="url(#SVGID_8_)"
   d="M201.834,84.07c1.554,0,2.33,0.8,2.33,2.401v4.874h-2.33v-4.874       c0-0.374-0.171-0.562-0.514-0.562h-4.062c-0.135,0-0.246,0.05-0.334,0.149c-0.088,0.1-0.132,0.237-0.132,0.412v4.874h-2.389       V84.07H201.834z"
   id="path5231" />
					<linearGradient
   id="SVGID_9_"
   gradientUnits="userSpaceOnUse"
   x1="228.9531"
   y1="87.9331"
   x2="228.9531"
   y2="85.0166">
						<stop
   offset="0"
   style="stop-color:#0826FF"
   id="stop5234" />
						<stop
   offset="0.0955"
   style="stop-color:#5E72FF"
   id="stop5236" />
						<stop
   offset="1"
   style="stop-color:#DBE0FF"
   id="stop5238" />
					</linearGradient>
					<path
   fill="url(#SVGID_9_)"
   d="M205.805,88.908V84.07h8.039v1.839h-5.399c-0.144,0-0.263,0.062-0.358,0.186       s-0.144,0.265-0.144,0.424c0,0.151,0.048,0.281,0.144,0.388s0.215,0.162,0.358,0.162h4.981v1.385h-4.981       c-0.334,0-0.502,0.152-0.502,0.454c0,0.151,0.048,0.283,0.144,0.395c0.096,0.111,0.215,0.167,0.358,0.167h5.399v1.875h-5.698       c-0.445,0-0.826-0.067-1.141-0.203c-0.314-0.135-0.548-0.287-0.698-0.454c-0.151-0.167-0.268-0.384-0.347-0.651       c-0.08-0.267-0.126-0.47-0.138-0.609C205.811,89.289,205.805,89.115,205.805,88.908z"
   id="path5240" />
					<linearGradient
   id="SVGID_10_"
   gradientUnits="userSpaceOnUse"
   x1="228.9531"
   y1="87.9331"
   x2="228.9531"
   y2="85.0166">
						<stop
   offset="0"
   style="stop-color:#0826FF"
   id="stop5243" />
						<stop
   offset="0.0955"
   style="stop-color:#5E72FF"
   id="stop5245" />
						<stop
   offset="1"
   style="stop-color:#DBE0FF"
   id="stop5247" />
					</linearGradient>
					<path
   fill="url(#SVGID_10_)"
   d="M221.654,87.033c0.717,0,1.31,0.193,1.78,0.58c0.47,0.386,0.704,0.934,0.704,1.643       c0,0.597-0.221,1.095-0.663,1.493c-0.441,0.398-0.966,0.597-1.57,0.597h-6.511v-1.828h5.901c0.151,0,0.291-0.063,0.418-0.191       c0.127-0.127,0.191-0.267,0.191-0.418c0-0.175-0.068-0.311-0.203-0.406c-0.136-0.095-0.307-0.143-0.514-0.143h-3.297       c-0.741,0-1.343-0.181-1.804-0.543c-0.462-0.362-0.693-0.918-0.693-1.667c0-0.565,0.223-1.053,0.669-1.463       s0.987-0.615,1.625-0.615h6.45v1.828h-5.889c-0.16,0-0.303,0.064-0.431,0.191c-0.127,0.128-0.19,0.267-0.19,0.418       c0,0.175,0.065,0.307,0.196,0.394c0.132,0.088,0.305,0.131,0.521,0.131H221.654z"
   id="path5249" />
					<linearGradient
   id="SVGID_11_"
   gradientUnits="userSpaceOnUse"
   x1="228.9531"
   y1="87.9331"
   x2="228.9531"
   y2="85.0166">
						<stop
   offset="0"
   style="stop-color:#0826FF"
   id="stop5252" />
						<stop
   offset="0.0955"
   style="stop-color:#5E72FF"
   id="stop5254" />
						<stop
   offset="1"
   style="stop-color:#DBE0FF"
   id="stop5256" />
					</linearGradient>
					<path
   fill="url(#SVGID_11_)"
   d="M225.755,91.345V84.07h2.496v7.275H225.755z"
   id="path5258" />
					<linearGradient
   id="SVGID_12_"
   gradientUnits="userSpaceOnUse"
   x1="228.9531"
   y1="87.9331"
   x2="228.9531"
   y2="85.0166">
						<stop
   offset="0"
   style="stop-color:#0826FF"
   id="stop5261" />
						<stop
   offset="0.0955"
   style="stop-color:#5E72FF"
   id="stop5263" />
						<stop
   offset="1"
   style="stop-color:#DBE0FF"
   id="stop5265" />
					</linearGradient>
					<path
   fill="url(#SVGID_12_)"
   d="M238.233,91.345h-6.044c-0.431,0-0.801-0.062-1.111-0.185s-0.538-0.263-0.681-0.418       c-0.144-0.156-0.257-0.36-0.341-0.615s-0.13-0.452-0.138-0.591c-0.008-0.14-0.012-0.317-0.012-0.532v-2.533       c0-0.223,0.004-0.404,0.012-0.543c0.008-0.139,0.054-0.34,0.138-0.603c0.084-0.263,0.197-0.474,0.341-0.633       c0.143-0.159,0.37-0.303,0.681-0.43c0.311-0.127,0.681-0.191,1.111-0.191h6.044v1.887h-5.53c-0.136,0-0.256,0.054-0.358,0.162       c-0.104,0.107-0.155,0.225-0.155,0.352v2.533c0,0.143,0.049,0.257,0.148,0.34s0.222,0.125,0.365,0.125h5.53V91.345z"
   id="path5267" />
					<linearGradient
   id="SVGID_13_"
   gradientUnits="userSpaceOnUse"
   x1="228.9531"
   y1="87.9331"
   x2="228.9531"
   y2="85.0166">
						<stop
   offset="0"
   style="stop-color:#0826FF"
   id="stop5270" />
						<stop
   offset="0.0955"
   style="stop-color:#5E72FF"
   id="stop5272" />
						<stop
   offset="1"
   style="stop-color:#DBE0FF"
   id="stop5274" />
					</linearGradient>
					<path
   fill="url(#SVGID_13_)"
   d="M239.88,91.345V84.07h2.496v7.275H239.88z"
   id="path5276" />
					<linearGradient
   id="SVGID_14_"
   gradientUnits="userSpaceOnUse"
   x1="228.9531"
   y1="87.9331"
   x2="228.9531"
   y2="85.0166">
						<stop
   offset="0"
   style="stop-color:#0826FF"
   id="stop5279" />
						<stop
   offset="0.0955"
   style="stop-color:#5E72FF"
   id="stop5281" />
						<stop
   offset="1"
   style="stop-color:#DBE0FF"
   id="stop5283" />
					</linearGradient>
					<path
   fill="url(#SVGID_14_)"
   d="M253.834,86.471v2.533c0,0.215-0.004,0.392-0.012,0.532c-0.009,0.139-0.055,0.336-0.138,0.591       c-0.084,0.255-0.197,0.459-0.341,0.615c-0.144,0.155-0.37,0.294-0.681,0.418s-0.681,0.185-1.111,0.185h-7.478V84.07h7.478       c0.431,0,0.801,0.064,1.111,0.191c0.311,0.127,0.537,0.271,0.681,0.43c0.144,0.16,0.257,0.37,0.341,0.633       c0.083,0.263,0.129,0.464,0.138,0.603C253.83,86.067,253.834,86.249,253.834,86.471z M251.552,89.004v-2.533       c0-0.127-0.052-0.245-0.155-0.352c-0.104-0.108-0.223-0.162-0.358-0.162h-4.014c-0.144,0-0.263,0.052-0.358,0.155       c-0.096,0.104-0.144,0.223-0.144,0.358v2.533c0,0.311,0.168,0.466,0.502,0.466h4.014c0.144,0,0.265-0.042,0.364-0.125       S251.552,89.147,251.552,89.004z"
   id="path5285" />
					<linearGradient
   id="SVGID_15_"
   gradientUnits="userSpaceOnUse"
   x1="228.9531"
   y1="87.9331"
   x2="228.9531"
   y2="85.0166">
						<stop
   offset="0"
   style="stop-color:#0826FF"
   id="stop5288" />
						<stop
   offset="0.0955"
   style="stop-color:#5E72FF"
   id="stop5290" />
						<stop
   offset="1"
   style="stop-color:#DBE0FF"
   id="stop5292" />
					</linearGradient>
					<path
   fill="url(#SVGID_15_)"
   d="M255.464,88.908V84.07h8.039v1.839h-5.399c-0.144,0-0.263,0.062-0.358,0.186       s-0.144,0.265-0.144,0.424c0,0.151,0.048,0.281,0.144,0.388s0.215,0.162,0.358,0.162h4.981v1.385h-4.981       c-0.334,0-0.502,0.152-0.502,0.454c0,0.151,0.048,0.283,0.144,0.395c0.096,0.111,0.215,0.167,0.358,0.167h5.399v1.875h-5.698       c-0.445,0-0.826-0.067-1.141-0.203c-0.314-0.135-0.548-0.287-0.698-0.454c-0.151-0.167-0.268-0.384-0.347-0.651       c-0.08-0.267-0.126-0.47-0.138-0.609C255.47,89.289,255.464,89.115,255.464,88.908z"
   id="path5294" />
				</g>
				<g
   id="g5296">
					<path
   fill="none"
   stroke="#0826FF"
   stroke-width="0.5"
   d="M201.834,84.07c1.554,0,2.33,0.8,2.33,2.401v4.874h-2.33v-4.874       c0-0.374-0.171-0.562-0.514-0.562h-4.062c-0.135,0-0.246,0.05-0.334,0.149c-0.088,0.1-0.132,0.237-0.132,0.412v4.874h-2.389       V84.07H201.834z"
   id="path5298" />
					<path
   fill="none"
   stroke="#0826FF"
   stroke-width="0.5"
   d="M205.805,88.908V84.07h8.039v1.839h-5.399       c-0.144,0-0.263,0.062-0.358,0.186s-0.144,0.265-0.144,0.424c0,0.151,0.048,0.281,0.144,0.388s0.215,0.162,0.358,0.162h4.981       v1.385h-4.981c-0.334,0-0.502,0.152-0.502,0.454c0,0.151,0.048,0.283,0.144,0.395c0.096,0.111,0.215,0.167,0.358,0.167h5.399       v1.875h-5.698c-0.445,0-0.826-0.067-1.141-0.203c-0.314-0.135-0.548-0.287-0.698-0.454c-0.151-0.167-0.268-0.384-0.347-0.651       c-0.08-0.267-0.126-0.47-0.138-0.609C205.811,89.289,205.805,89.115,205.805,88.908z"
   id="path5300" />
					<path
   fill="none"
   stroke="#0826FF"
   stroke-width="0.5"
   d="M221.654,87.033c0.717,0,1.31,0.193,1.78,0.58       c0.47,0.386,0.704,0.934,0.704,1.643c0,0.597-0.221,1.095-0.663,1.493c-0.441,0.398-0.966,0.597-1.57,0.597h-6.511v-1.828       h5.901c0.151,0,0.291-0.063,0.418-0.191c0.127-0.127,0.191-0.267,0.191-0.418c0-0.175-0.068-0.311-0.203-0.406       c-0.136-0.095-0.307-0.143-0.514-0.143h-3.297c-0.741,0-1.343-0.181-1.804-0.543c-0.462-0.362-0.693-0.918-0.693-1.667       c0-0.565,0.223-1.053,0.669-1.463s0.987-0.615,1.625-0.615h6.45v1.828h-5.889c-0.16,0-0.303,0.064-0.431,0.191       c-0.127,0.128-0.19,0.267-0.19,0.418c0,0.175,0.065,0.307,0.196,0.394c0.132,0.088,0.305,0.131,0.521,0.131H221.654z"
   id="path5302" />
					<path
   fill="none"
   stroke="#0826FF"
   stroke-width="0.5"
   d="M225.755,91.345V84.07h2.496v7.275H225.755z"
   id="path5304" />
					<path
   fill="none"
   stroke="#0826FF"
   stroke-width="0.5"
   d="M238.233,91.345h-6.044c-0.431,0-0.801-0.062-1.111-0.185       s-0.538-0.263-0.681-0.418c-0.144-0.156-0.257-0.36-0.341-0.615s-0.13-0.452-0.138-0.591c-0.008-0.14-0.012-0.317-0.012-0.532       v-2.533c0-0.223,0.004-0.404,0.012-0.543c0.008-0.139,0.054-0.34,0.138-0.603c0.084-0.263,0.197-0.474,0.341-0.633       c0.143-0.159,0.37-0.303,0.681-0.43c0.311-0.127,0.681-0.191,1.111-0.191h6.044v1.887h-5.53c-0.136,0-0.256,0.054-0.358,0.162       c-0.104,0.107-0.155,0.225-0.155,0.352v2.533c0,0.143,0.049,0.257,0.148,0.34s0.222,0.125,0.365,0.125h5.53V91.345z"
   id="path5306" />
					<path
   fill="none"
   stroke="#0826FF"
   stroke-width="0.5"
   d="M239.88,91.345V84.07h2.496v7.275H239.88z"
   id="path5308" />
					<path
   fill="none"
   stroke="#0826FF"
   stroke-width="0.5"
   d="M253.834,86.471v2.533c0,0.215-0.004,0.392-0.012,0.532       c-0.009,0.139-0.055,0.336-0.138,0.591c-0.084,0.255-0.197,0.459-0.341,0.615c-0.144,0.155-0.37,0.294-0.681,0.418       s-0.681,0.185-1.111,0.185h-7.478V84.07h7.478c0.431,0,0.801,0.064,1.111,0.191c0.311,0.127,0.537,0.271,0.681,0.43       c0.144,0.16,0.257,0.37,0.341,0.633c0.083,0.263,0.129,0.464,0.138,0.603C253.83,86.067,253.834,86.249,253.834,86.471z        M251.552,89.004v-2.533c0-0.127-0.052-0.245-0.155-0.352c-0.104-0.108-0.223-0.162-0.358-0.162h-4.014       c-0.144,0-0.263,0.052-0.358,0.155c-0.096,0.104-0.144,0.223-0.144,0.358v2.533c0,0.311,0.168,0.466,0.502,0.466h4.014       c0.144,0,0.265-0.042,0.364-0.125S251.552,89.147,251.552,89.004z"
   id="path5310" />
					<path
   fill="none"
   stroke="#0826FF"
   stroke-width="0.5"
   d="M255.464,88.908V84.07h8.039v1.839h-5.399       c-0.144,0-0.263,0.062-0.358,0.186s-0.144,0.265-0.144,0.424c0,0.151,0.048,0.281,0.144,0.388s0.215,0.162,0.358,0.162h4.981       v1.385h-4.981c-0.334,0-0.502,0.152-0.502,0.454c0,0.151,0.048,0.283,0.144,0.395c0.096,0.111,0.215,0.167,0.358,0.167h5.399       v1.875h-5.698c-0.445,0-0.826-0.067-1.141-0.203c-0.314-0.135-0.548-0.287-0.698-0.454c-0.151-0.167-0.268-0.384-0.347-0.651       c-0.08-0.267-0.126-0.47-0.138-0.609C255.47,89.289,255.464,89.115,255.464,88.908z"
   id="path5312" />
				</g>
			</g>
		</g>
	</g>
</g>
<g
   id="Highlights"
   display="none">
	<g
   id="Buttons_Highlight"
   display="inline">
		<g
   id="B">
			<circle
   fill="#FF8080"
   stroke="#000000"
   cx="209.663"
   cy="134.502"
   r="12.583"
   id="circle5317" />
			<linearGradient
   id="SVGID_16_"
   gradientUnits="userSpaceOnUse"
   x1="209.5"
   y1="123.5"
   x2="209.5"
   y2="145.4407">
				<stop
   offset="0"
   style="stop-color:#FFC2C2"
   id="stop5320" />
				<stop
   offset="1"
   style="stop-color:#FF8D8D"
   id="stop5322" />
			</linearGradient>
			<path
   fill="url(#SVGID_16_)"
   d="M209.5,145.438c-6.065,0-11-4.935-11-11s4.935-11,11-11s11,4.935,11,11     S215.565,145.438,209.5,145.438L209.5,145.438z"
   id="path5324" />
			<radialGradient
   id="SVGID_17_"
   cx="209.5576"
   cy="143.6328"
   r="19.1377"
   gradientUnits="userSpaceOnUse">
				<stop
   offset="0"
   style="stop-color:#FFB8B8"
   id="stop5327" />
				<stop
   offset="0.6156"
   style="stop-color:#FF8080"
   id="stop5329" />
			</radialGradient>
			<circle
   fill="url(#SVGID_17_)"
   cx="209.5"
   cy="134.438"
   r="10"
   id="circle5331" />
		</g>
		<g
   id="A">
			<circle
   fill="#FF8080"
   stroke="#000000"
   cx="247.663"
   cy="134.502"
   r="12.583"
   id="circle5334" />
			<linearGradient
   id="SVGID_18_"
   gradientUnits="userSpaceOnUse"
   x1="247.5"
   y1="123.5"
   x2="247.5"
   y2="145.4407">
				<stop
   offset="0"
   style="stop-color:#FFC2C2"
   id="stop5337" />
				<stop
   offset="1"
   style="stop-color:#FF8D8D"
   id="stop5339" />
			</linearGradient>
			<path
   fill="url(#SVGID_18_)"
   d="M247.5,145.438c-6.065,0-11-4.935-11-11s4.935-11,11-11s11,4.935,11,11     S253.565,145.438,247.5,145.438L247.5,145.438z"
   id="path5341" />
			<radialGradient
   id="SVGID_19_"
   cx="247.5576"
   cy="143.6328"
   r="19.1377"
   gradientUnits="userSpaceOnUse">
				<stop
   offset="0"
   style="stop-color:#FFB8B8"
   id="stop5344" />
				<stop
   offset="0.6156"
   style="stop-color:#FF8080"
   id="stop5346" />
			</radialGradient>
			<circle
   fill="url(#SVGID_19_)"
   cx="247.5"
   cy="134.438"
   r="10"
   id="circle5348" />
		</g>
	</g>
	<g
   id="Rubber_Buttons_Highlight"
   display="inline">
		<g
   id="g5351">
			<g
   id="g5353">
				<path
   fill="#B7ACAB"
   d="M132.25,134.5c0-2.209-1.791-4-4-4h-16.125c-2.209,0-4,1.791-4,4v1c0,2.209,1.791,4,4,4h16.125      c2.209,0,4-1.791,4-4V134.5z"
   id="path5355" />
			</g>
			<g
   id="g5357">
				<path
   fill="#B7ACAB"
   d="M170.75,134.5c0-2.209-1.791-4-4-4h-16.125c-2.209,0-4,1.791-4,4v1c0,2.209,1.791,4,4,4h16.125      c2.209,0,4-1.791,4-4V134.5z"
   id="path5359" />
			</g>
		</g>
		<g
   id="g5361">
			<g
   id="g5363">
				<path
   fill="none"
   stroke="#000000"
   d="M132.25,134.5c0-2.209-1.791-4-4-4h-16.125c-2.209,0-4,1.791-4,4v1c0,2.209,1.791,4,4,4      h16.125c2.209,0,4-1.791,4-4V134.5z"
   id="path5365" />
			</g>
			<g
   id="g5367">
				<path
   fill="none"
   stroke="#000000"
   d="M170.75,134.5c0-2.209-1.791-4-4-4h-16.125c-2.209,0-4,1.791-4,4v1c0,2.209,1.791,4,4,4      h16.125c2.209,0,4-1.791,4-4V134.5z"
   id="path5369" />
			</g>
		</g>
	</g>
	<g
   id="DPad_Highlight"
   display="inline">
		<g
   id="g5372">
			<g
   id="g5374">
				<polygon
   fill="#FFECDE"
   points="43.058,124.792 43.058,116.958 37.642,116.958 37.642,114.958 32.142,120.875 37.642,126.792       37.642,124.792     "
   id="polygon5376" />
			</g>
			<g
   id="g5378">
				<polygon
   fill="#FFECDE"
   points="55.062,143.796 60.979,138.296 58.979,138.296 58.979,132.879 51.146,132.879 51.146,138.296       49.146,138.296     "
   id="polygon5380" />
			</g>
			<g
   id="g5382">
				<polygon
   fill="#FFECDE"
   points="72.483,114.958 77.983,120.875 72.483,126.792 72.483,124.792 67.066,124.792 67.066,116.958       72.483,116.958     "
   id="polygon5384" />
			</g>
			<g
   id="g5386">
				<polygon
   fill="#FFECDE"
   points="51.146,108.871 51.146,103.454 49.146,103.454 55.062,97.954 60.979,103.454 58.979,103.454       58.979,108.871     "
   id="polygon5388" />
			</g>
		</g>
		<g
   id="g5390">
			<g
   id="g5392">
				<polygon
   fill="none"
   stroke="#B7ACAB"
   stroke-linecap="round"
   stroke-linejoin="round"
   points="43.058,124.792 43.058,116.958       37.642,116.958 37.642,114.958 32.142,120.875 37.642,126.792 37.642,124.792     "
   id="polygon5394" />
			</g>
			<g
   id="g5396">
				<polygon
   fill="none"
   stroke="#B7ACAB"
   stroke-linecap="round"
   stroke-linejoin="round"
   points="55.062,143.796 60.979,138.296       58.979,138.296 58.979,132.879 51.146,132.879 51.146,138.296 49.146,138.296     "
   id="polygon5398" />
			</g>
			<g
   id="g5400">
				<polygon
   fill="none"
   stroke="#B7ACAB"
   stroke-linecap="round"
   stroke-linejoin="round"
   points="72.483,114.958 77.983,120.875       72.483,126.792 72.483,124.792 67.066,124.792 67.066,116.958 72.483,116.958     "
   id="polygon5402" />
			</g>
			<g
   id="g5404">
				<polygon
   fill="none"
   stroke="#B7ACAB"
   stroke-linecap="round"
   stroke-linejoin="round"
   points="51.146,108.871 51.146,103.454       49.146,103.454 55.062,97.954 60.979,103.454 58.979,103.454 58.979,108.871     "
   id="polygon5406" />
			</g>
		</g>
	</g>
</g>
<g
   id="Guides"
   display="none">
	<g
   id="Start-Select-Bevel"
   display="inline">
	</g>
	<g
   id="Start_x2C__Select"
   display="inline">
	</g>
	<g
   id="DPad_Outline"
   display="inline">
	</g>
	<g
   id="Button_Frames"
   display="inline">
	</g>
	<g
   id="Gray_Bars"
   display="inline">
	</g>
	<g
   id="Gray_Frame"
   display="inline">
	</g>
</g>
</svg>